<svg width="800" height="600" xmlns="http://www.w3.org/2000/svg">
 <g>
  <title>Layer 1</title>
  <g stroke="null" id="svg_2">
   <path stroke="null" p-id="4388" fill="#FF6A00" d="m431.91831,321.3391c0,34.13049 23.70173,61.94052 54.03995,71.10519l0,24.96582c-17.06525,4.1083 -30.33821,21.17355 -30.33821,39.50288c0,22.43764 18.32934,40.76698 40.76698,40.76698c22.43764,0 40.76698,-18.32934 40.76698,-40.76698c0,-18.32934 -12.00888,-34.13049 -29.07412,-39.50288l0,-26.22991c23.70173,-1.26409 43.61118,-13.27297 56.56813,-30.33821l46.13937,26.22991c0,1.26409 -1.26409,2.52818 -1.26409,3.79228c0,22.43764 18.32934,40.76698 40.76698,40.76698s40.76698,-18.32934 40.76698,-40.76698c-1.26409,-22.43764 -18.32934,-39.50288 -40.76698,-39.50288c-13.27297,0 -23.70173,6.63648 -32.8664,15.80115l-44.87528,-26.22991c2.52818,-7.90058 3.79228,-14.53706 3.79228,-22.43764c0,-12.00888 -2.52818,-22.43764 -7.90058,-30.33821l51.19574,-29.07412c7.90058,7.90058 18.32934,12.00888 29.07412,12.00888c22.43764,0 40.76698,-18.32934 40.76698,-40.76698s-18.32934,-40.76698 -40.76698,-40.76698s-40.45095,18.64536 -40.45095,41.083c0,2.52818 1.26409,6.63648 1.26409,9.16467l-52.77585,30.33821c-13.27297,-13.27297 -30.33821,-22.43764 -49.93165,-23.70173l0,-26.22991c17.06525,-5.37239 29.07412,-21.17355 29.07412,-39.50288c0,-22.43764 -18.32934,-40.76698 -40.76698,-40.76698c-22.43764,0 -39.50288,18.32934 -39.50288,42.03107c0,18.32934 13.27297,34.13049 30.33821,39.50288l0,29.07412c-30.33821,7.58455 -54.03995,36.65868 -54.03995,70.78917l-0.00001,-0.00001z" id="svg_3"/>
   <path stroke="null" p-id="4389" fill="#FF6A00" d="m654.39855,459.75721c-3.79228,43.61118 -38.23879,76.47758 -81.53395,76.47758l-345.09719,0c-44.87528,0 -81.53395,-36.9747 -81.53395,-81.53395c0,-40.76698 29.07412,-74.89747 68.57701,-81.53395l17.06525,-2.52818l0,-20.22548c0,-73.63338 60.67643,-133.04571 133.04571,-133.04571c17.06525,0 32.8664,2.52818 47.40346,9.16467c6.63648,-12.00888 14.53706,-23.70173 22.43764,-35.39458c-22.43764,-9.16467 -46.13937,-14.53706 -71.10519,-14.53706c-91.01464,0 -167.1762,71.10519 -175.07678,161.80381c-51.19574,15.80115 -86.90634,64.46871 -86.90634,118.50865c0,68.57701 55.30404,125.14514 125.14514,125.14514l345.09719,0c68.57701,0 123.88104,-55.30404 125.14514,-123.88104c0,-1.26409 0,-2.52818 1.26409,-3.79228l-43.92721,5.37239l-0.00002,-0.00001z" id="svg_4"/>
  </g>
  <g stroke="null" id="svg_5">
   <path stroke="null" p-id="4388" fill="#FF6900" d="m107.83506,78.02655l45.53772,0l0,10.21407l-45.53772,0l0,-10.21407z" id="svg_6"/>
   <path stroke="null" p-id="4389" fill="#FF6900" d="m175.92885,41.00055l-30.21662,0l7.23497,10.21407l22.13048,6.80938c4.25586,1.27676 6.80938,5.10703 6.80938,8.93731l0,32.77014c0,4.25586 -2.55352,7.66055 -6.80938,8.93731l-22.13048,6.80938l-6.80938,10.63966l30.21662,0c12.76759,0 22.55607,-10.21407 22.55607,-22.55607l0,-40.0051c0,-12.342 -10.21407,-22.55607 -22.98166,-22.55607l0,-0.00001zm-90.22428,68.09379c-4.25586,-1.27676 -6.80938,-5.10703 -6.80938,-8.93731l0,-33.19572c0,-4.25586 2.55352,-7.66055 6.80938,-8.93731l22.13048,-6.80938l7.23497,-10.21407l-30.21662,0c-12.342,0 -22.55607,10.21407 -22.55607,22.55607l0,39.57952c0,12.76759 10.21407,22.55607 22.55607,22.55607l30.21662,0l-7.23497,-10.21407l-22.13048,-6.38379l0,-0.00001zm468.14483,-64.6891c-13.19317,0 -23.83283,10.63966 -23.83283,23.40724l0,32.77014c0,12.76759 10.63966,23.40724 23.83283,23.40724c13.19317,0 23.83283,-10.63966 23.83283,-23.40724l0,-0.42559l-10.21407,0l0,0.42559c0,7.23497 -5.95821,13.19317 -13.61876,13.19317c-7.23497,0 -13.61876,-5.95821 -13.61876,-13.19317l0,-32.77014c0,-7.23497 5.95821,-13.19317 13.61876,-13.19317c7.23497,0 13.61876,5.95821 13.61876,13.19317l0,0.42559l10.21407,0l0,-0.42559c0,-12.76759 -10.63966,-23.40724 -23.83283,-23.40724zm66.81703,20.85372c-11.06524,0 -20.00255,8.51172 -20.42814,19.15138l0,20.42814c0.42559,10.63966 9.3629,19.15138 20.42814,19.15138c11.06524,0 20.00255,-8.51172 20.42814,-19.15138l0,-20.00255c-0.42559,-11.06524 -9.3629,-19.57697 -20.42814,-19.57697zm10.21407,38.30276c0,5.53262 -4.68145,10.21407 -10.21407,10.21407c-5.53262,0 -10.21407,-4.25586 -10.21407,-10.21407l0,-17.44903c0,-5.53262 4.68145,-10.21407 10.21407,-10.21407c5.53262,0 10.21407,4.68145 10.21407,10.21407l0,17.44903zm-48.09124,-59.15648l10.21407,0l0,78.30786l-10.21407,0l0,-78.30786zm-283.44042,20.85372l10.21407,0l0,57.02855l-10.21407,0l0,-57.02855zm-20.42814,-20.85372l10.21407,0l0,78.30786l-10.21407,0l0,-78.30786zm-25.96076,0l-12.76759,0l-20.85372,78.30786l10.21407,0l5.53262,-20.85372l22.55607,0l5.53262,20.42814l10.21407,0l-20.42814,-77.88228zm-15.3211,47.24007l8.51172,-32.34455l8.51172,32.34455l-17.02345,0l0.00001,0zm441.75849,12.76759c0,5.53262 -4.68145,10.21407 -10.21407,10.21407c-5.53262,0 -10.21407,-4.68145 -10.21407,-10.21407l0,-39.15393l-10.21407,0l0,40.85628c0,9.78848 8.08614,17.87462 17.87462,17.87462c1.70234,0 3.40469,-0.42559 5.10703,-0.85117c0.85117,-0.42559 2.12793,-0.85117 2.9791,-1.27676c1.70234,-0.85117 2.9791,-1.70234 4.25586,-2.9791l0.42559,-0.42559l0,4.25586l10.21407,0l0,-57.45414l-10.21407,0l0,39.15393l0.00001,0zm-380.04848,-60.00766l10.21407,0l0,10.21407l-10.21407,0l0,-10.21407zm43.40979,20.85372c-4.68145,0 -8.93731,1.70234 -12.342,5.10703l-0.42559,0.42559l0,-26.38634l-10.21407,0l0,78.30786l10.21407,0l0,-4.25586l0.42559,0.42559c3.40469,3.40469 7.66055,5.10703 12.342,5.10703c9.78848,0 17.87462,-8.08614 17.87462,-17.87462l0,-22.98166c0,-9.78848 -8.08614,-17.87462 -17.87462,-17.87462zm7.66055,39.15393c0,5.53262 -4.68145,10.21407 -10.21407,10.21407s-10.21407,-4.68145 -10.21407,-10.21407l0,-19.57697c0,-5.53262 4.68145,-10.21407 10.21407,-10.21407s10.21407,4.68145 10.21407,10.21407l0,19.57697zm88.52193,-39.15393c-4.68145,0 -8.93731,1.70234 -12.342,5.10703l-0.85117,0.42559l0,-26.38634l-10.21407,0l0,78.30786l10.21407,0l0,-4.25586l0.42559,0.42559c3.40469,3.40469 7.66055,5.10703 12.342,5.10703c9.78848,0 17.87462,-8.08614 17.87462,-17.87462l0,-22.98166c0,-9.78848 -8.08614,-17.87462 -17.44903,-17.87462l-0.00001,0zm7.23497,39.15393c0,5.53262 -4.68145,10.21407 -10.21407,10.21407c-5.53262,0 -10.21407,-4.68145 -10.21407,-10.21407l0,-19.57697c0,-5.53262 4.68145,-10.21407 10.21407,-10.21407c5.53262,0 10.21407,4.68145 10.21407,10.21407l0,19.57697zm281.31248,-60.00766l0,26.38634l-0.42559,-0.42559c-3.40469,-3.40469 -7.66055,-5.10703 -12.342,-5.10703c-9.78848,0 -17.87462,8.08614 -17.87462,17.87462l0,22.98166c0,9.78848 8.08614,17.44903 17.87462,17.44903c4.68145,0 8.93731,-1.70234 12.342,-5.10703l0.42559,-0.42559l0,4.25586l10.21407,0l0,-77.88228l-10.21407,0l0,0.00001zm0,60.00766c0,5.53262 -4.68145,10.21407 -10.21407,10.21407c-5.53262,0 -10.21407,-4.68145 -10.21407,-10.21407l0,-19.57697c0,-5.53262 4.68145,-10.21407 10.21407,-10.21407c5.53262,0 10.21407,4.68145 10.21407,10.21407l0,19.57697zm-319.61524,-22.13048c-0.42559,-2.9791 -1.70234,-5.95821 -3.40469,-8.51172c-3.83028,-5.10703 -9.3629,-8.08614 -15.3211,-8.51172l-1.27676,0c-4.68145,0 -9.3629,1.70234 -13.19317,4.68145c-3.83028,2.9791 -5.95821,7.23497 -7.23497,11.91641l10.21407,0c0.85117,-4.68145 5.10703,-8.08614 9.78848,-8.08614c2.55352,0 5.10703,0.85117 7.23497,2.9791c1.70234,1.70234 2.9791,4.25586 2.9791,6.80938l0,4.68145l-14.46993,0c-9.78848,0 -17.87462,8.08614 -17.87462,17.87462c0,8.08614 5.53262,15.3211 13.19317,17.02345l0.42559,0c0.42559,0 0.85117,0 0.85117,0.42559l4.25586,0c2.55352,0 4.68145,-0.42559 6.38379,-0.85117c2.55352,-0.85117 5.10703,-2.12793 7.23497,-4.25586l0.42559,-0.42559l0,4.25586l10.21407,0l0,-37.87717c0,-0.42559 0,-0.85117 -0.42559,-2.12793l0,-0.00001zm-10.21407,21.27931c0,5.53262 -3.83028,10.21407 -9.3629,11.06524c-0.85117,0 -1.70234,0.42559 -2.12793,0.42559c-1.70234,0 -3.40469,-0.42559 -5.10703,-1.27676c-0.42559,-0.42559 -0.85117,-0.42559 -1.27676,-0.85117c-0.42559,-0.42559 -1.27676,-0.85117 -1.70234,-1.70234c-1.27676,-1.70234 -1.70234,-3.40469 -1.70234,-5.53262c0,-5.10703 4.25586,-9.3629 9.3629,-9.3629l12.342,0l0,7.23497l-0.42559,0l-0.00001,-0.00001zm106.39655,-20.85372c-0.42559,-2.9791 -1.70234,-5.95821 -3.40469,-8.51172c-3.83028,-5.10703 -9.3629,-8.08614 -15.3211,-8.51172l-1.27676,0c-4.68145,0 -9.3629,1.70234 -13.19317,4.68145c-3.83028,2.9791 -5.95821,7.23497 -7.23497,11.91641l10.21407,0c0.85117,-4.68145 5.10703,-8.08614 9.78848,-8.08614c2.55352,0 5.10703,0.85117 7.23497,2.9791c1.70234,1.70234 2.9791,4.25586 2.9791,6.80938l0,4.68145l-14.46993,0c-9.78848,0 -17.87462,8.08614 -17.87462,17.87462c0,8.08614 5.53262,15.3211 13.19317,17.02345l0.42559,0c0.42559,0 0.85117,0 0.85117,0.42559l4.25586,0c2.55352,0 4.68145,-0.42559 6.38379,-0.85117c2.55352,-0.85117 5.10703,-2.12793 7.23497,-4.25586l0.42559,-0.42559l0,4.25586l10.21407,0l0,-37.87717c-0.42559,-0.85117 -0.42559,-1.27676 -0.42559,-2.12793l0,-0.00001zm-10.21407,20.85372c0,5.53262 -3.83028,10.21407 -9.3629,11.06524c-0.85117,0 -1.70234,0.42559 -2.12793,0.42559c-1.70234,0 -3.40469,-0.42559 -5.10703,-1.27676c-0.42559,-0.42559 -0.85117,-0.42559 -1.27676,-0.85117c-0.42559,-0.42559 -1.27676,-0.85117 -1.70234,-1.70234c-1.27676,-1.70234 -1.70234,-3.40469 -1.70234,-5.53262c0,-5.10703 4.25586,-9.3629 9.3629,-9.3629l12.342,0l0,7.23497l-0.42559,0l-0.00001,-0.00001z" id="svg_7"/>
  </g>
 </g>

</svg>